<svg width="512" height="512" viewBox="0 0 512 512" fill="none" xmlns="http://www.w3.org/2000/svg">
<path d="M256 496C388.548 496 496 388.548 496 256C496 123.452 388.548 16 256 16C123.452 16 16 123.452 16 256C16 388.548 123.452 496 256 496Z" fill="#A67C52"/>
<path d="M386.667 93.44V93.3333H386.533C350.76 64.5733 305.36 47.3333 256 47.3333C140.947 47.3333 47.3333 140.947 47.3333 256C47.3333 371.053 140.947 464.667 256 464.667C371.053 464.667 464.667 371.053 464.667 256C464.667 190.36 434.2 131.72 386.667 93.44ZM256 54C300.733 54 342.107 68.6267 375.613 93.3333H136.387C169.893 68.6267 211.267 54 256 54ZM127.813 100H384.187C400.333 113.293 414.373 129.04 425.76 146.667H86.24C97.6267 129.04 111.667 113.293 127.813 100ZM82.0933 153.333H429.907C438.493 167.827 445.307 183.48 450.08 200H61.92C66.6933 183.48 73.5067 167.827 82.0933 153.333ZM60.12 206.667H451.88C455.653 221.64 457.747 237.253 457.96 253.333H54.04C54.2533 237.253 56.3467 221.64 60.12 206.667ZM138.227 420H373.787C340.613 443.907 299.933 458 256.013 458C212.093 458 171.413 443.907 138.24 420H138.227ZM382.507 413.333H129.493C113.067 400.093 98.7333 384.347 87.1067 366.667H424.88C413.253 384.347 398.92 400.093 382.493 413.333H382.507ZM429.093 360H82.9067C74.1733 345.52 67.2 329.867 62.3067 313.333H449.693C444.787 329.867 437.813 345.52 429.093 360ZM451.533 306.667H60.4667C56.5867 291.707 54.3733 276.08 54.0533 260H457.947C457.627 276.08 455.413 291.707 451.533 306.667Z" fill="#8C6239"/>
<path d="M180.587 380.147C177.467 369.747 176.773 345.12 176.773 319.12V241.44C176.773 198.107 187.867 178.68 201.04 164.813C213.867 150.947 233.28 139.853 258.6 139.853C305.413 139.853 335.24 174.88 335.24 225.147C335.24 284.44 298.133 315.307 258.6 315.307C236.76 315.307 217.68 306.293 207.973 290.693H206.933V317.733C206.933 337.16 207.28 366.28 209.707 380.147H180.587ZM206.933 245.613C206.933 249.773 207.28 253.933 208.32 257.747C213.867 276.827 232.24 291.373 253.747 291.373C285.987 291.373 304.72 263.64 304.72 225.84C304.72 192.907 287.387 165.16 256.173 165.16C232.253 165.16 206.933 184.92 206.933 231.387V245.6V245.613Z" fill="#8C6239" stroke="#A67C52" stroke-width="5" stroke-miterlimit="10"/>
<path d="M365.613 211.24V246.32H390.373V211.24C392.653 211.24 394.507 209.387 394.507 207.107V202.973C394.507 200.693 392.653 198.84 390.373 198.84V193.68C390.373 191.4 388.52 189.547 386.24 189.547H369.733C367.453 189.547 365.6 191.4 365.6 193.68V198.84C363.32 198.84 361.467 200.693 361.467 202.973V207.107C361.467 209.387 363.32 211.24 365.6 211.24H365.613Z" fill="#AF1B26"/>
<path d="M384.453 435.133V348.467H421.333V313.387C421.333 299.36 412.013 287.52 399.213 283.72C393.973 282.16 390.373 277.333 390.373 271.867V246.333H365.613V271.867C365.613 277.333 362.027 282.16 356.773 283.72C343.987 287.52 334.653 299.373 334.653 313.387V496H421.32V435.133H384.44H384.453Z" fill="#C61A27"/>
<path d="M421.333 348.467H384.453V435.133H421.333V348.467Z" fill="#E6E6E6"/>
<path d="M366.907 297.907C356.653 297.907 348.333 306.227 348.333 316.48V475.373H366.907V297.907Z" fill="#EA3939"/>
</svg>
