<svg
  xmlns="http://www.w3.org/2000/svg"
  width="144"
  height="144"
  viewBox="0 0 144 144"
  fill="none"
  style="overflow: visible;"
>
  <g filter="url(#dropShadow)">
    <path d="M72 135.5C109.279 135.5 139.5 105.279 139.5 68C139.5 30.7208 109.279 0.5 72 0.5C34.7208 0.5 4.5 30.7208 4.5 68C4.5 105.279 34.7208 135.5 72 135.5Z" fill="#A67C52"/>
    <path d="M108.75 22.28V22.25H108.712C98.6512 14.1613 85.8825 9.3125 72 9.3125C39.6413 9.3125 13.3125 35.6413 13.3125 68C13.3125 100.359 39.6413 126.688 72 126.688C104.359 126.688 130.688 100.359 130.688 68C130.688 49.5387 122.119 33.0462 108.75 22.28ZM72 11.1875C84.5813 11.1875 96.2175 15.3012 105.641 22.25H38.3587C47.7825 15.3012 59.4188 11.1875 72 11.1875ZM35.9475 24.125H108.053C112.594 27.8638 116.543 32.2925 119.745 37.25H24.255C27.4575 32.2925 31.4062 27.8638 35.9475 24.125ZM23.0887 39.125H120.911C123.326 43.2012 125.243 47.6037 126.585 52.25H17.415C18.7575 47.6037 20.6737 43.2012 23.0887 39.125ZM16.9088 54.125H127.091C128.153 58.3363 128.741 62.7275 128.801 67.25H15.1987C15.2587 62.7275 15.8475 58.3363 16.9088 54.125ZM38.8762 114.125H105.128C95.7975 120.849 84.3562 124.812 72.0037 124.812C59.6512 124.812 48.21 120.849 38.88 114.125H38.8762ZM107.58 112.25H36.42C31.8 108.526 27.7688 104.098 24.4988 99.125H119.497C116.228 104.098 112.196 108.526 107.576 112.25H107.58ZM120.683 97.25H23.3175C20.8612 93.1775 18.9 88.775 17.5237 84.125H126.476C125.096 88.775 123.135 93.1775 120.683 97.25ZM126.994 82.25H17.0062C15.915 78.0425 15.2925 73.6475 15.2025 69.125H128.798C128.707 73.6475 128.085 78.0425 126.994 82.25Z" fill="#8C6239"/>
    <path d="M50.7903 102.916C49.9128 99.991 49.7178 93.0647 49.7178 85.7522V63.9047C49.7178 51.7172 52.8378 46.2535 56.5428 42.3535C60.1503 38.4535 65.6103 35.3335 72.7315 35.3335C85.8978 35.3335 94.2865 45.1847 94.2865 59.3222C94.2865 75.9985 83.8503 84.6797 72.7315 84.6797C66.589 84.6797 61.2228 82.1447 58.4928 77.7572H58.2003V85.3622C58.2003 90.826 58.2978 99.016 58.9803 102.916H50.7903ZM58.2003 65.0785C58.2003 66.2485 58.2978 67.4185 58.5903 68.491C60.1503 73.8572 65.3178 77.9485 71.3665 77.9485C80.434 77.9485 85.7028 70.1485 85.7028 59.5172C85.7028 50.2547 80.8278 42.451 72.049 42.451C65.3215 42.451 58.2003 48.0085 58.2003 61.0772V65.0747V65.0785Z" fill="#8C6239" stroke="#A67C52" stroke-width="5" stroke-miterlimit="10"/>
    <path d="M102.926 55.5387V65.405H109.89V55.5387C110.532 55.5387 111.053 55.0175 111.053 54.3762V53.2137C111.053 52.5725 110.532 52.0513 109.89 52.0513V50.6C109.89 49.9587 109.369 49.4375 108.728 49.4375H104.085C103.444 49.4375 102.923 49.9587 102.923 50.6V52.0513C102.282 52.0513 101.76 52.5725 101.76 53.2137V54.3762C101.76 55.0175 102.282 55.5387 102.923 55.5387H102.926Z" fill="#AF1B26"/>
    <path d="M108.225 118.509V94.1337H118.597V84.2674C118.597 80.3224 115.976 76.9924 112.376 75.9237C110.903 75.4849 109.89 74.1274 109.89 72.5899V65.4087H102.926V72.5899C102.926 74.1274 101.917 75.4849 100.44 75.9237C96.8437 76.9924 94.2188 80.3262 94.2188 84.2674V135.627H118.594V118.509H108.221H108.225Z" fill="#C61A27"/>
    <path d="M118.598 94.1338H108.225V118.509H118.598V94.1338Z" fill="#E6E6E6"/>
    <path d="M108.296 118.509H114.863C116.644 118.509 118.091 116.998 118.091 115.134V97.0363C118.091 95.435 116.85 94.1338 115.316 94.1338H108.296C107.614 94.1338 107.062 94.655 107.062 95.2963V117.35C107.062 117.991 107.614 118.513 108.296 118.513V118.509Z" fill="white"/>
    <path d="M103.29 79.9136C100.406 79.9136 98.0664 82.2536 98.0664 85.1373V129.826H103.29V79.9136Z" fill="#EA3939"/>
  </g>
  <defs>
    <filter id="dropShadow" x="-50%" y="-50%" width="200%" height="200%">
      <feDropShadow dx="0" dy="4" stdDeviation="4" flood-color="black" flood-opacity="0.25"/>
    </filter>
  </defs>
</svg>